<?xml version="1.0" encoding="utf-8"?>
<!DOCTYPE svg PUBLIC "-//W3C//DTD SVG 1.1//EN" "http://www.w3.org/Graphics/SVG/1.1/DTD/svg11.dtd">
<svg version="1.1" id="Ebene_1" xmlns="http://www.w3.org/2000/svg" xmlns:xlink="http://www.w3.org/1999/xlink" x="0px" y="0px"
	 viewBox="-174.4483 -278.709 539.5385 900" enable-background="new -174.4483 -278.709 539.5385 900" xml:space="preserve">
<g>
	<path fill="#8EAB2F" d="M-34.5055,558.9376c-1.3284,13.1741-6.3016,25.6886-14.118,36.0571
		c7.9645-10.2094,13.1268-22.6303,14.1174-36.051L-34.5055,558.9376z M-96.4283,551.2426
		c-1.4467,7.7452,1.139,15.6859,6.8061,21.3425c4.9008,4.8223,11.2585,7,18.0394,6.2335
		c7.3238-0.997,12.9729-6.6595,14.3871-13.8636c1.0636-5.3489-2.9733-11.2037-8.3193-12.2628
		c8.0206,1.4615,15.0884,5.8312,20.1695,12.5264c3.0295,4.198,3.3003,10.1357,0.2441,14.3367l0.9497,1.2928
		c10.8413-13.7127,11.0928-36.3357-4.5488-47.5721c-9.1342-6.3668-20.3794-7.9673-30.5373-3.8696
		c-9.0915,3.908-15.4019,12.2391-17.1954,21.8729L-96.4283,551.2426z M-120.6248,401.313
		c-2.4112-3.7663-3.2973-8.1033-2.5561-12.3782c-0.4512,2.8698,1.7337,5.9615,4.593,6.408c3.8565,0.6213,7.7291-1.1627,9.5765-4.633
		c1.6257-3.2512,1.6997-6.8312,0.2012-10.1563c-1.7869-3.8696-5.2719-6.627-9.4051-7.3311
		c-5.1389-0.8698-10.4554,0.7544-14.0647,4.5797c-3.9187,4.3104-5.1804,10.2276-3.6893,15.9639
		c2.7411,9.8755,14.0941,13.9169,22.9311,11.0204l-0.4665-0.7271c-2.6659,0.7574-5.5803-0.4847-7.1163-2.7569L-120.6248,401.313z
		 M-154.9338,499.2565c-21.6548,23.8367-26.3542,60.5837-8.6934,88.7126c1.9378,3.1389,4.0695,6.0914,6.3622,8.8546l1.1242,0.0976
		c-21.909-25.3898-22.2316-64.3131-1.5695-91.9814c1.4171-1.852,2.8845-3.6093,4.423-5.281
		c1.528-1.6804,3.1255-3.2513,4.7736-4.7485c16.2287-14.7067,39.8469-28.5584,62.3379-21.4667
		c2.9023,0.9053,6.4362,1.9556,9.0176,3.5857c3.4939,2.2041,5.2928,6.408,7.6804,9.6241c2.9289,3.9202,5.593,8.0469,9.4584,11.1682
		c7.5398,6.1123,14.8145,5.6803,23.7612,7.3756c2.7411,0.5178,5.5634,1.2633,8.3208,2.2632
		c2.7558,0.9882,5.4437,2.2426,7.9109,3.7869c2.1715,1.2041,3.9926,2.642,5.5294,4.2513c1.5369,1.6153,2.7943,3.402,3.8756,5.3104
		c5.7869,8.8104,4.0074,20.8632,10.9998,28.5996c6.2453,6.6004,13.4255,12.4109,20.3085,18.4315
		c1.7218,1.4881,3.4276,3.0029,5.0974,4.5381c11.5987,10.7747,23.2241,25.5613,23.3468,42.3038l2.4851,0.213
		c3.6566-18.7507-1.037-38.4746-6.8518-56.1122c-0.6435-1.8195-1.3328-3.6597-2.0428-5.5059
		c-5.019-12.8723-11.3888-25.6116-19.6532-36.7962c-1.4467-2.2218-2.9127-4.4318-4.4185-6.6092
		c-6.0102-8.7276-12.5173-17.0793-19.3588-24.9696c-2.5073-2.6715-5.1195-5.2483-7.8134-7.7158
		c-2.6981-2.4674-5.4731-4.846-8.3311-7.0884c-1.0148-0.6864-2.0562-1.3106-3.1004-1.9437
		c-3.1628-3.287-7.6831-5.5059-12.1801-6.5916c-1.0961-0.3018-2.2203-0.5799-3.3415-0.8669
		c-4.4894-1.1508-9.0309-2.3401-12.254-4.7572c-0.926-0.571-1.7647-1.1864-2.4733-1.8757
		c-11.9317-13.1771,4.1286-20.7093,3.7854-33.3002c-0.2396-14.5322-22.5688-9.4554-14.0069-29.7387
		c4.7869-10.6093,17.0763-20.2509,1.6701-29.5463c-11.084-6.9318-23.1738-1.1508-34.9846-1.1508
		c29.5924,8.2423,19.1503,46.8329,21.2907,69.9782c1.2692,13.7867,8.2084,22.0971,17.7568,27.3542
		c1.0606,0.5858,2.1567,1.139,3.2764,1.6508c0.4467,0.1598,0.9171,0.3343,1.3727,0.497c-1.4142,0.0355-2.8328,0.1124-4.2528,0.2574
		c-1.3298-0.0207-2.6656,0-3.9926,0.0207l0.0074-0.4172c-21.0865-0.781-42.3917-6.3904-60.8171-16.9372
		c-18.1548-10.2215-33.9121-28.3158-34.0545-49.7109c0.2973-10.3369,5.5812-20.7302,14.4034-26.3896
		c8.7319-5.8727,20.9386-5.3134,29.7402,0.3846c9.2097,5.5649,12.59,18.0497,8.8488,28.0228
		c-3.0828,10.8162-16.2272,15.8103-26.1694,10.5323c9.7513,5.5382,23.4165,0.8343,26.8673-10.2718
		c4.0989-10.1476,0.9497-23.3453-8.7068-29.5197c-9.1582-6.2453-22.088-7.1714-31.7642-1.0443
		c-9.6668,5.9081-15.6077,16.9136-16.1978,28.1561c-0.3949,23.1414,16.0618,42.5674,34.7392,53.6735
		c12.5557,7.5707,26.3217,12.8575,40.6134,15.97c-24.1769,4.2692-47.354,13.251-66.3277,29.2713
		c-2.8144,2.3933-5.4319,4.8774-7.8312,7.5434L-154.9338,499.2565z M-48.6229,594.9885c-2.9467,3.7899-6.2883,7.2571-9.9331,10.3693
		l0.3018,0.0237c3.5566-3.1204,6.7891-6.6043,9.6308-10.3912L-48.6229,594.9885z M-150.3199,259.1087
		c-8.9125,13.4346-8.3266,33.7001,6.1005,43.9701c8.8813,6.1272,19.7759,7.6358,29.616,3.6124
		c5.6506-2.4615,10.1655-6.704,13.1341-11.8932c2.0754-3.2188,3.5636-6.8312,4.2631-10.6802
		c1.3579-7.5204-1.1863-15.2008-6.6937-20.6533c-4.7675-4.63-10.9465-6.7276-17.5038-5.9615
		c-5.3549,0.7633-9.7632,4.0974-12.1919,8.6831c-1.1967,1.8461-2.099,3.9259-2.5265,6.1684
		c-0.6021,3.1095,0.5976,6.3638,2.7514,8.7068c-5.2113-2.0946-9.8162-5.5737-13.4004-10.257
		c-2.9614-4.0471-3.2394-9.8016-0.3018-13.8902l-0.923-1.2455c-0.8543,1.1209-1.6147,2.3024-2.3236,3.4839L-150.3199,259.1087z
		 M231.5476,603.6832c-8.5235-9.8222-14.3516-21.9787-16.5795-35.0452c1.8783,13.3298,7.907,25.4175,16.5713,35.0513
		L231.5476,603.6832z M226.9428,588.4751c-3.3282-3.988-3.4791-9.9258-0.7411-14.3013c4.6109-7.0529,11.3651-11.884,19.2658-13.8902
		c-5.2529,1.4171-8.8873,7.5295-7.4628,12.7926c1.9082,7.0945,7.9303,12.3519,15.3117,12.8575
		c6.8103,0.2899,13.0071-2.3224,17.5659-7.4584c5.2616-6.0236,7.312-14.118,5.3431-21.7508
		c-2.4541-9.476-9.3266-17.3575-18.6489-20.6118c-10.4197-3.402-21.5318-1.0236-30.2047,5.9318
		c-14.8427,12.2924-13.0468,34.8544-1.2884,47.7872l0.8785-1.3633L226.9428,588.4751z M-159.8022,284.1324
		c0.7263-28.2506,16.0602-54.4703,40.7043-70.1782c25.9164-15.5764,56.4364-18.4993,82.9081-5.707
		c25.8292,12.7215,46.9905,34.0182,56.0123,61.2472c6.3032,18.5084,6.6167,37.8656,2.1567,56.0396
		c-0.8964,3.633-1.9748,7.2217-3.2379,10.7481c-1.5029,9.9907-4.8563,18.6623-9.5826,26.2684
		c-1.5873,2.5384-3.3149,4.9526-5.1832,7.266c-0.7189,1.1154-1.5015,2.136-2.3091,3.1213
		c7.3874-20.4906,20.7287-43.6217,14.6903-67.2184c-3.732-15.189-20.4061-28.1382-36.1691-22.2004
		c-7.019,4.1301-9.3399,14.5588-4.1449,20.7626c2.4866,3.0326,6.158,5.0471,10.0397,5.3519
		c4.2958,1.2514,7.9273-3.4969,5.3149-7.133c2.4082,3.772-1.1642,8.0678-5.2765,6.76c-3.7426-0.4201-7.2453-2.494-9.4908-5.4377
		c-4.7263-5.9406-1.997-15.6355,4.241-18.9728c14.3501-4.9199,29.8187,7.5974,32.5973,21.6236
		c3.4539,14.5349-1.9363,29.496-7.4008,43.452c-2.8461,6.9999-5.5649,14.2568-9.1372,20.6917
		c-1.6878,3.1507-3.7305,6.7394-5.0117,10.6741c-13.4182,8.3902-24.4904,18.5408-29.0465,35.3572
		c-4.5664,14.3604,3.167,27.9725,15.9506,33.4395c3.0516,1.6094,6.2898,2.9141,9.5944,3.9316
		c2.9866,1.2337,5.8902,2.4763,8.5471,3.8018c17.7804,9.3902,18.2939,31.3189,25.6619,48.7445
		c2.1346,4.6951,4.9614,8.834,9.7689,11.9198c2.8298,2.3668,5.8624,4.5679,8.8325,6.8461
		c5.939,4.5412,11.6342,9.3547,14.899,16.2686c1.4881,2.5975,2.781,5.3165,3.8684,8.1269
		c2.1597,5.6388,3.4836,11.6771,3.8623,17.9758c0.892,17.0706-3.1122,32.5065-9.4893,47.4236l2.7825,0.2485
		c16.2066-31.5159,20.7199-69.1906,5.4243-102.2242c-1.0754-2.4851-2.25-4.9614-3.5251-7.4168
		c-1.2736-2.4615-2.6641-4.9111-4.1522-7.3372c-1.4127-2.2573-2.8623-4.5206-4.3549-6.7867
		c-1.4881-2.2692-3.0058-4.5412-4.5488-6.8342c-1.9467-3.3609-4.0086-6.6685-6.1241-9.9286
		c-1.7973-2.7662-3.6048-5.5058-5.417-8.2423c-1.7973-2.7366-3.599-5.4673-5.3564-8.1978
		c-5.3386-8.2927-10.7926-17.0527-14.8694-26.2772c-1.3594-3.0592-2.5591-6.2011-3.5545-9.3814
		c-1.0044-3.1743-1.7928-6.411-2.3165-9.7038c-0.5295-3.2809-0.784-6.624-0.7307-10.0264
		c-0.1819-3.7899-0.1213-7.5798,0.1627-11.3546c0.2914-3.7662,0.8239-7.5086,1.602-11.1861
		c3.2928-14.4967,9.831-29.3128,15.1208-44.2821c1.3091-3.9941,2.4171-8.0206,3.3061-12.1061
		c6.2262-28.5672,1.8549-58.9842-16.7746-84.3774c-18.2494-24.8839-45.818-39.6985-75.9191-41.2435
		c-47.9447-3.2113-94.1778,36.8386-94.9201,85.674L-159.8022,284.1324z M70.2362,616.4979l8.8222,0.7662
		c1.1938-0.4053,2.3875-0.8313,3.5651-1.2722c4.6448-1.7573,9.1727-3.8253,13.5409-6.1714
		c2.4008,0.5887,4.2231,1.0148,4.2231,1.0148c15.3929,5.6864,32.9821,6.3904,48.2871-0.0414
		c2.5325-1.1804,4.9866-2.5206,7.3577-4.0059c11.865-7.4613,21.4979-18.6769,26.3245-31.837
		c0.9585-2.5886,1.6937-5.2482,2.1982-7.9585c0.5059-2.71,0.7722-5.4852,0.784-8.2957c0.0237-1.9141,0.0015-3.8223-0.0104-5.7455
		c-0.0266-5.766,0.0429-11.5499,1.6878-17.1799c3.3918-11.5884,15.189-18.0585,26.0006-20.8781
		c8.8016-2.2958,16.0987-2.3668,23.205-8.976c1.0414-0.9645,1.9674-2.0118,2.8372-3.1004
		c22.9608,4.5058,47.4782,1.571,69.751-10.6329c1.6494-0.8846,3.2485-1.8076,4.8239-2.7543
		c3.7853,2.3727,7.3623,4.926,10.6741,7.5352c1.7411,1.3787,3.4436,2.849,5.0887,4.4109c1.639,1.5562,3.2321,3.2131,4.7648,4.9614
		c24.9133,28.9932,25.1293,73.5045-2.4911,100.0368c-9.6386,9.3932-20.8529,15.3959-34.1393,18.6563
		c-24.9533,6.062-50.0078-3.5057-66.0187-21.3486c11.2482,12.9672,27.1752,21.8427,45.7514,23.3099
		c29.3927,2.6656,54.9944-12.6654,68.4756-38.211c15.7067-29.2713,8.4968-65.6098-14.7257-87.928
		c-2.5857-2.4733-5.3652-4.7781-8.325-6.8932c-2.5606-1.8698-5.1938-3.6033-7.8652-5.2483
		c35.948-22.1353,53.7068-61.3866,49.714-103.2542c-4.4852-50.8076-44.3427-91.3937-92.9418-100.4761
		c-5.3991-1.0118-10.9122-1.6331-16.4908-1.8431c-46.736-2.4526-91.3907,13.9344-130.6499,38.4564
		c-4.2189,2.7307-8.3251,5.6863-12.3325,8.8134c-4.7527,2.9082-9.1448,6.195-13.1801,9.8279
		c-4.031,3.6154-7.707,7.5798-10.9983,11.8014c-2.5694,3.988-4.8608,8.1063-6.9169,12.3428
		c-0.9378,1.9437-1.8062,3.9141-2.6434,5.9112c2.3638-30.304,16.7628-56.7667,50.5198-83.9473
		c0.7189-0.5828,1.4349-1.1863,2.1612-1.781c14.8103-6.6152,23.73-24.8455,41.4556-25.5053
		c8.3429-0.9645,12.0144,11.1389,20.4136,12.2482c3.5739,0.5503,6.6358-0.7071,9.4569-2.6893
		c8.4747-5.9584,14.8503-18.5084,26.4474-8.4317c7.9361,7.3932,11.2025,23.3189,27.9089,7.0324
		c12.2658-11.6475,12.6563-26.6856,18.5511-40.3892c-22.767,32.9155-55.1004,14.1356-78.685,12.6239
		c-3.1849-0.2071-6.238-0.0266-9.1788,0.497c-6.5825,0.7633-12.8738,4.8638-19.1576,8.9612
		c-8.8267,7.2483-15.9448,16.0645-23.906,23.5201c4.2913-4.2989,8.3399-8.7807,12.0959-13.4197
		c2.67-3.3046,5.1892-6.6891,7.5204-10.1743c7.3829-10.1563,11.9938-21.31,14.7318-33.0184
		c0.9038-3.908,1.6227-7.8606,2.3683-11.8075c0.7633-3.5857,1.4955-7.2011,2.1789-10.8429
		c0.6864-3.639,1.3269-7.3074,1.9201-11.0086c1.6153-13.7009,3.4097-27.9283,3.9968-42.1009
		c0.1021-2.8416,0.1583-5.6833,0.1065-8.5014c-2.0236-23.384-5.4258-48.8021-20.3824-68.3878
		c-1.1982-1.4733-2.4511-2.9126-3.7439-4.2928c-20.7523-22.1977-53.316-32.8245-83.0596-23.0096
		c-22.7033,7.1802-39.856,26.5983-45.4515,48.9051c-9.9685,1.1582-19.6117,4.9599-27.7889,11.1225
		c-17.319,13.1713-25.8573,35.5359-21.1413,56.3182c1.0458,4.8993,2.8076,9.612,5.2928,13.9108
		c10.5205,20.6472,40.1438,27.3009,58.9206,13.4849c3.3061-2.4585,6.2114-5.5619,8.4983-9.3666
		c5.4864-10.4227,2.7381-22.2598-4.8372-30.6918c-4.0974-4.2528-8.3887-6.5813-14.1889-6.4849
		c-8.4126,0.4941-13.0201,8.4286-14.3162,15.3799c-3.8178-3.8947-6.3904-8.9643-6.9363-14.0572
		c-0.247-5.2719,0.9216-10.9552,5.1123-14.4225c3.3225-2.7573,6.92-5.1789,10.7244-7.0796c0.5355,2.562,1.2263,5.1195,2.1153,7.6461
		c-0.7973-2.5576-1.4408-5.1435-1.9215-7.7482c7.3089-3.6154,15.3738-5.2943,23.7536-3.5872
		c3.892,0.9171,7.5901,2.6789,10.8741,5.4067c21.5673,16.9551,26.7092,37.8111,23.7255,59.7507
		c-0.7426,5.4879-1.9985,11.0322-3.633,16.6031c-1.4733,4.1301-2.9052,8.3784-4.3785,12.609
		c-2.1449,6.2335-4.537,12.4227-7.0899,18.5587c-11.4006,25.0376-24.1148,50.5683-32.5216,76.9007
		c-1.6878,5.2719-3.1982,10.5648-4.5146,15.9079c-1.9748,6.3668-3.3639,12.7512-4.2513,19.1325
		c-3.1152,27.7062,3.324,54.343,12.5115,80.124c5.9672,22.8423,15.208,45.0425,23.2965,68.2393
		c1.0488,4.3667,2.2263,8.6949,3.5754,12.9672c0.9068,2.7159,1.8461,5.4082,2.7884,8.0766
		c0.6272,1.7632,1.2825,3.5529,1.9496,5.3698c0.6376,2.3135,1.247,4.6508,1.8269,6.9938l0.2485-1.3727
		c0.1154,0.3077,0.2145,0.6035,0.3284,0.9171c9.7156,16.9167,13.7142,36.7902,11.5663,55.158
		c-0.537,4.5945-1.46,9.0854-2.7854,13.3843c-4.1837,13.148-12.4603,24.5389-23.1514,32.658L70.2362,616.4979z M52.1501,323.3036
		c-3.6669,10.905-5.8696,21.3543-6.9348,31.4886c-0.1494-2.2632-0.2619-4.5382-0.3195-6.8194
		c-0.0606-6.4761,0.2737-12.9699,1.1346-19.449c0.8609-6.488,2.2514-12.9611,4.2692-19.4224
		c1.6168-5.4052,3.6299-10.7068,6.1299-15.8664c2.5177-6.5619,3.985-10.3015,3.985-10.3015
		c10.3591-24.1944,25.8543-45.2636,35.7692-69.233c2.0147-4.772,3.7869-9.6535,5.2098-14.6979
		c2.0813-6.3341,3.7838-12.6891,5.0102-19.0319c6.1005-31.6642,0.142-62.6044-30.6342-84.7561
		c-3.417-2.3712-7.056-4.4746-10.9065-6.2632c-8.8325-3.8992-18.3484-5.201-27.6102-4.2379
		c2.2854-8.7395,6.411-17.183,12.3561-24.8646c18.1682-22.1044,46.6087-30.3646,73.6773-23.9666
		c15.717,3.9835,29.4073,12.5366,39.9014,24.1338c1.3106,1.4467,2.5754,2.9393,3.7647,4.4822
		c14.3931,19.2715,20.8426,45.1516,17.1712,69.5147c0.1731-4.2483,0.1435-8.5101-0.0962-12.782
		c-1.1316-21.693-10.6669-45.3061-31.3128-55.7305c-10.2333-4.7203-22.7315-4.5885-32.4671,1.2159
		c-9.9316,5.7039-15.1311,17.5883-13.8708,28.6011c0.9675,11.4181,11.1876,20.3557,22.0732,21.4518
		c11.433,2.1272,21.955-7.7867,21.5985-18.9949c0.0385,11.2585-10.5072,20.5614-21.5112,18.2479
		c-10.5602-1.3328-20.0437-10.1388-20.6754-20.8677c-0.9452-10.4509,4.2455-21.5142,13.5173-26.502
		c9.1209-5.1698,20.7744-5.0147,30.0523-0.4541c18.8722,10.0797,27.5405,32.458,28.1306,53.2858
		c0.4556,12.7554-1.1701,25.5998-4.5133,37.9504c-1.1627,2.065-2.3889,4.1035-3.7217,6.0856
		c-2.5177,3.6802-5.2822,7.0678-8.2424,10.2185c-2.9585,3.1628-6.1196,6.1211-9.4405,8.834
		c-2.7529,3.1598-5.6094,6.2159-8.541,9.1239c-2.9392,2.9171-5.9584,5.6951-9.0264,8.3193
		c-4.7039,4.3846-9.0203,9.1091-11.7332,15.325c-1.6671,7.275,0.0518,14.9257-0.318,22.2092
		c-0.4157,8.3075-2.4467,15.2274-7.7246,21.8366c-5.8015,7.275-14.7939,10.8635-23.1384,14.2834
		c-20.5581,8.422-34.1393,27.0231-41.0314,47.6539L52.1501,323.3036z M239.1971,502.6497c2.1168-2.6863,3.8535-5.6506,5.707-8.5383
		c2.1671-3.3579,3.6684-7.6743,6.9999-10.1152c2.4703-1.8076,5.9245-3.0976,8.7556-4.204
		c17.5068-6.8605,36.6235-0.4911,52.3738,9.2542c-22.1759,13.7539-48.7748,18.1164-73.8287,13.6327L239.1971,502.6497z
		 M96.7988,609.4696c4.3164-2.3521,8.4759-5.0087,12.4006-7.9731c8.0618-6.0708,15.1905-13.3724,20.8914-21.8305
		c2.25-3.639,4.2764-7.4346,6.0693-11.3457c8.9346-19.5614,11.862-42.0797,6.9851-63.0346
		c-0.5651-2.4289-1.2574-4.8285-2.0547-7.189c-1.1716-11.9523-5.8194-24.2656,0.6671-35.3329
		c3.3743-6.9436,14.5143-3.7217,19.5202-9.6771c2.1878-2.4881,2.7322-5.4731,2.5887-8.6564
		c-0.4112-9.5529-6.9451-20.7569,6.5589-24.6973c9.6017-2.4408,23.498,3.0147,19.1842-18.0824
		c-2.9378-15.3337-14.3368-23.1708-21.9978-34.5877c14.1535,34.1151-16.2835,49.7291-29.0864,67.2244
		c-1.7322,2.3579-3.0931,4.8163-4.145,7.349c-2.6641,5.491-2.6064,12.4079-2.5458,19.3218
		c1.2026,10.1712,4.3385,19.8277,6.1832,29.4488c-1.3712-2.923-2.9407-5.7542-4.7233-8.4968
		c-1.5813-2.4615-3.2276-4.9081-4.8563-7.3756c-4.8905-7.3665-9.6713-14.8633-12.2985-23.4698
		c-5.411-17.7361,4.2989-35.9752,15.7955-48.687c9.3739-10.3636,18.6783-16.6058,22.2316-31.0735
		c1.8239-7.3962,1.2559-14.9227,1.1967-22.4283c-0.0444-6.1508-1.7529-12.9611,0.4734-18.9046
		c1.6464-4.3873,4.9999-8.9552,7.6949-12.7569c0.7603-1.068,1.5532-2.0916,2.3624-3.1064c4.9629-2.852,10.1137-5.358,15.3768-7.4553
		c32.976-12.8399,72.729-10.8429,102.6695,9.1388c14.677,9.9761,26.9237,24.4489,32.255,41.4798
		c5.3579,16.7597,1.6656,37.2355-12.2792,48.8748c-13.3383,11.6978-34.3787,15.2393-50.0291,5.84
		c-14.6903-8.8044-24.983-31.3492-12.782-46.3119c-12.4243,14.8339-2.5073,37.7293,12.3991,46.945
		c15.8606,9.8104,37.4264,6.5561,51.3802-5.3371c14.6446-11.8962,18.7938-33.1366,13.4625-50.641
		c-5.3165-17.7747-17.6889-32.773-32.7185-43.3187c-30.6797-21.0377-71.4688-23.7151-105.9898-10.8429
		c-1.0532,0.4053-2.1183,0.8314-3.1685,1.2751c22.5497-17.5765,55.6912-20.523,83.2505-18.097
		c3.4037,0.284,6.8179,0.7307,10.2394,1.3639c3.4363,0.6183,6.8697,1.3964,10.306,2.3609
		c56.391,16.242,94.1475,73.2016,81.0359,130.5256c-4.4688,20.177-13.8042,37.3082-28.1203,52.701
		c-5.7721,6.1714-12.1786,11.3636-18.9965,15.7155c-22.8545-13.8636-49.6352-19.4875-76.3857-20.0734
		c-3.2779-0.0207-6.5664,0.1302-9.8652,0.3905c-3.6257-0.1095-7.1935,0.1154-10.6874,0.645
		c-3.4985,0.5325-6.9066,1.3698-10.2024,2.4999c-2.8268,1.2515-5.55,2.6774-8.1802,4.2574
		c-2.4718,1.4792-4.8532,3.1064-7.1566,4.846c-4.2589-3.3994-8.3044-7.1093-12.0528-11.1328
		c3.6536,4.1389,7.6046,7.9082,11.7999,11.3134c-0.0577,0.0503-0.1287,0.0858-0.1938,0.139
		c-19.1724,17.4108-34.1515,40.1559-41.0981,64.9312c-0.4763,1.8017-0.9349,3.5975-1.3713,5.4022
		c-0.6272,2.5768-1.2337,5.272-1.8786,8.0352c-0.7544,12.686-5.6742,24.9343-13.411,34.1666
		c-1.9349,2.3135-4.0368,4.4349-6.2929,6.3017c-8.5432,6.8467-19.5887,10.2094-30.3373,9.3915L96.7988,609.4696z M238.2276,385.1054
		l0.96-0.4615c-0.4955-3.4261,1.5014-6.8343,4.59-8.3696c5.0692-2.3727,10.5945-2.7573,15.7715-1.1242
		c-3.4791-1.0355-7.6713,1.1627-8.7053,4.633c-1.3979,4.6891,0.1701,9.7777,4.1743,12.6415
		c3.7572,2.5502,8.1875,3.2395,12.5633,1.929c5.0932-1.5828,9.0869-5.4525,10.6387-10.473
		c1.9245-6.2187,0.7766-13.0944-3.3651-18.1976c-4.713-5.5679-11.8338-8.1093-19.1827-7.189
		c-12.7845,1.7571-19.6614,15.1777-17.5105,26.5989L238.2276,385.1054z M143.1622,109.1489
		c6.6788-6.4686,8.3947-18.393,0.929-25.4253c-4.377-3.985-10.1921-5.6182-15.8397-4.164
		c-5.0635,1.4201-8.9776,5.3652-10.6047,10.3267c-1.2973,3.985-0.4911,8.3505,2.1035,11.729
		c2.2455,2.8875,5.4494,4.4776,9.0721,4.5515c3.948-0.0192,7.3268-2.6123,8.5738-6.3135c0.929-2.7529-0.787-6.1181-3.5354-7.0442
		c4.1286,1.3224,7.5531,4.1286,9.7586,8.016c1.3165,2.426,1.0399,5.5828-0.8653,7.5856l0.4544,0.7271L143.1622,109.1489z"/>
	<path fill="#2C3E02" d="M40.3412,320.4257c-4.9644,10.476-10.6847,20.5733-16.2051,30.7584
		c-5.5576,10.2512-10.9301,20.606-16.3399,30.9402c-9.3932,17.9431-18.2687,36.1842-24.6013,55.4639
		c-0.1183,0.3639,0.4438,0.5739,0.5636,0.2041c7.5265-22.9163,18.6741-44.3154,29.9296-65.5734
		c5.3873-10.1773,10.7629-20.3633,16.2762-30.4737c5.5073-10.1034,10.9271-20.2803,15.2865-30.9281
		c2.1198-5.1743,3.9541-10.4584,5.3446-15.8724c1.2721-4.9762,2.0502-10.0737,2.6345-15.1741
		c1.071-9.3339,1.031-19.1324-3.0029-27.8129c-2.0443-4.4052-5.1256-8.2572-8.7719-11.4406
		c-2.3446-2.0414-5.1168-3.8193-8.1817-4.5146c-4.4924-1.0148-8.834,0.7396-11.5321,4.4376
		c-2.3771,3.2512-3.3415,7.7749-1.9496,11.6151c1.6701,4.6181,6.5383,6.0826,11.044,5.7778
		c0.6006-0.0414,1.1952-0.1095,1.7884-0.2101c0.3816-0.0503,0.2781-0.642-0.1035-0.5828
		c-4.8284,0.7307-10.3739-0.2219-12.2273-5.3459c-1.4408-3.9732-0.0281-8.7037,2.6508-11.8163
		c3.3727-3.9053,8.5395-4.3697,13.0647-2.2899c3.8638,1.784,7.1181,4.982,9.738,8.2629c3.0752,3.852,5.1492,8.3932,6.2986,13.1713
		c2.3076,9.612,0.9837,19.8753-0.6701,29.4873c-1.9177,11.1485-6.2226,21.782-11.0334,31.9308L40.3412,320.4257z M21.3069,511.6775
		c-2.5206-20.9965-0.3669-42.6158,5.8297-62.8105c5.494-17.9106,16.4759-34.2696,27.4621-49.2414
		c10.9153-14.8754,22.9239-28.9013,34.0333-43.6308c2.9156-3.8669,6.3874-7.3902,9.4184-11.1801
		c3.4718-4.3225,6.88-8.7128,10.2409-13.1207c6.1774-8.1212,12.1743-16.4138,18.1236-24.7034
		c21.0925-29.3425,36.4175-64.1041,36.5054-100.7458c0.0547-20.0262-3.6699-39.8439-8.6092-59.1751
		c-4.9778-19.4566-11.868-38.2443-20.7969-56.2274c-9.0042-18.1549-19.3248-35.6995-25.983-54.9156
		c-5.6639-16.3662-8.2748-35.9752,0.6006-51.6862c6.8739-12.1534,20.5097-19.3957,34.3363-19.0186
		c13.9211,0.3728,25.5244,8.8519,30.4434,21.7509c2.6375,6.9242,2.599,14.7467-0.3373,21.5421
		c-3.3312,7.7201-10.3548,11.7675-18.2969,13.1668c-7.2468,1.2751-14.9878-3.1019-18.4848-9.3502
		c-3.5857-6.3992-1.6997-14.6328,3.1671-19.7568c0.3299-0.3535-0.1509-0.929-0.4896-0.5784
		c-9.8961,10.2779-4.8608,27.403,9.343,30.3313c15.7864,3.2588,29.0301-10.9892,27.9489-26.2875
		c-1.0976-15.4995-12.0204-27.7462-27.0688-31.0311c-15.8633-3.463-32.2974,4.3622-40.8436,17.8531
		c-8.2469,13.0159-7.3756,29.6854-3.9081,44.0579c4.6566,19.3294,14.5973,37.0022,23.6931,54.5036
		c9.6462,18.5602,17.7228,37.4688,23.4949,57.6058c5.6876,19.8426,9.4569,39.8984,10.6741,60.5171
		c2.2647,38.3807-13.683,75.2708-35.4057,106.0777c-22.5524,31.9884-48.4628,61.2745-71.7717,92.6722
		c-10.7868,14.5322-20.4978,29.9429-27.0776,46.8662c-3.5118,9.0322-5.3195,19.0764-6.63,28.6293
		c-1.3358,9.7689-1.6257,19.668-1.0872,29.5021c1.0799,19.7686,7.4804,39.038,14.8206,57.3029
		c7.5768,18.8604,15.5749,37.6263,25.7922,55.2216c1.0103,1.7544,2.1316,3.4348,3.201,5.1476h0.3269
		c-9.7719-15.973-17.3899-33.1669-24.5347-50.444c-7.7828-18.8435-15.6958-38.5352-18.1345-58.863L21.3069,511.6775z
		 M13.8331,456.268c1.5251-7.266,3.5236-14.4553,5.9733-21.4876c1.9127-5.7573,4.161-11.2779,6.7218-16.6801
		c0.3713-0.784,0.7944-1.5443,1.1804-2.3254c1.9393-2.8786,3.9347-5.763,6.0441-8.701
		c23.3395-31.9187,50.4532-58.7267,73.6773-88.0128c4.6463-5.8697,9.1285-11.8429,13.3607-18.02
		c13.5885-17.8516,23.0275-38.1443,28.3451-59.4568c1.7721-7.0975,3.0858-14.3101,3.9392-21.5912
		c7.3208-57.6512-20.7969-111.4156-46.2876-161.1963c-1.1597-2.3209-2.3224-4.6448-3.4703-6.9702
		c-3.4539-6.9866-6.8-14.0262-9.914-21.1725c-1.6508-3.6612-3.2691-7.3398-4.8414-11.0249
		c-1.5769-3.6863-3.1064-7.4023-4.5842-11.1388c-1.8254-4.6566-3.5488-9.3727-5.1241-14.1192
		c-7.8503-23.7521-11.8917-48.4779-4.1595-72.9472c1.4038-4.0456,3.4155-7.701,5.8978-10.9244
		c7.4465-9.6683,19.1428-15.461,31.5037-16.3278c3.9968-0.4778,7.8961,0.3816,11.2585,2.1153
		c1.6834,0.8639,3.2306,1.9511,4.5915,3.1952c4.556,4.4006,7.707,11.8265,4.6197,17.844c-1.0739,2.1848-2.7632,4.0974-4.7869,5.451
		c-1.1228-3.4882-3.6551-6.1817-6.7748-7.7364c-3.124-1.5428-6.8297-1.9363-10.2836-0.7973
		c-7.4613,2.457-9.7126,10.7853-8.3608,17.9803c0.8994,4.7202,3.3758,8.9967,7.4301,11.2512
		c3.9305,2.2425,8.2602,3.3121,12.5912,3.2855c4.3298-0.0281,8.6595-1.1553,12.5957-3.2897
		c1.8017-1.0103,3.4009-2.2351,4.8178-3.6227c1.4171-1.3801,2.6464-2.9274,3.6966-4.5945
		c8.8058-14.4979,3.8593-36.0934-11.1667-44.2579c-2.2987-1.2633-4.7808-2.3017-7.3829-3.0901
		c-3.8993-1.1745-8.0751-1.7958-12.3518-1.781c-11.3518-0.2367-21.7006,4.7157-29.7993,12.3634
		c-2.7854,2.5813-5.2231,5.3607-7.3459,8.2911c-2.1242,2.9319-3.9317,6.019-5.4555,9.2218
		c-11.822,27.7314-5.7794,56.9908,4.4452,84.5713c1.46,3.945,3.0073,7.8534,4.6094,11.7141
		c1.8417,4.4658,3.7602,8.9049,5.7366,13.3074c1.9718,4.4037,3.9998,8.778,6.0663,13.1386c1.4186,3.1271,2.8845,6.2438,4.3846,9.346
		c1.5015,3.1034,3.0368,6.2011,4.596,9.2809c2.4822,4.7469,4.9778,9.5056,7.4526,14.291
		c22.9757,45.7029,47.042,95.1866,39.6409,147.8635c-0.8668,7.056-2.1671,14.0499-3.8993,20.9462
		c-5.2026,20.6769-14.288,40.4104-27.2167,57.8027c-4.0562,6.0826-8.3414,11.9938-12.7763,17.8131
		c-19.1667,25.1087-41.0102,48.6476-61.117,75.189c8.0545-12.689,16.3487-25.1324,24.9236-38.1231
		c41.6646-50.0987,84.4531-114.733,66.6034-182.8117c-0.7381-2.7987-1.5473-5.5858-2.4126-8.3578
		c-8.6431-24.6043-18.319-48.899-30.3798-72.1746c-1.3801-2.565-2.7854-5.1153-4.2071-7.6625
		c-2.1375-3.809-4.3104-7.6077-6.5176-11.3827C72.91,43.0931,58.2897,13.8585,45.6628-16.285
		c-1.5488-3.6463-3.0783-7.3044-4.5664-10.9746c-1.5133-4.0353-2.9674-8.0945-4.3519-12.1801
		c-6.9333-20.4091-12.2452-41.3798-15.6667-62.7105c-0.6405-4.3728-1.1523-8.7616-1.5177-13.1668
		c-2.1878-26.4357,0.9201-53.2676,12.3325-77.6126c1.8683-4.3343,3.9095-8.6256,6.1493-12.8163
		c15.6564-29.3837,40.7376-54.1037,74.3771-57.1483c3.2276-0.0814,6.494,0.1243,9.7556,0.6302
		c3.9023,0.5444,7.7943,1.3801,11.6166,2.4925c3.8166,1.1227,7.5574,2.5221,11.1507,4.2143
		c3.599,1.6908,7.053,3.6581,10.2927,5.9051c9.9022,6.8533,18.8974,16.751,20.2464,29.1174
		c1.1242,12.822-2.6981,26.545-12.3679,35.2239c-3.4836,3.0871-8.2675,5.019-13.0468,5.2837
		c-4.7809,0.2648-9.5632-1.1435-13.0499-4.7393c4.0486,2.9245,8.661,2.6952,12.8311,0.8358
		c4.1728-1.8609,7.9037-5.3683,10.1846-8.9997c9.3754-12.7584,3.7514-32.5549-11.2615-37.7081
		c-4.6521-1.994-9.8089-2.8416-14.8457-2.3091c-6.8046,0.7219-13.5512,2.9703-18.276,8.3696
		c-3.2634,4.0429-5.5116,8.541-6.8046,13.2955c-1.2944,4.7514-1.6331,9.7541-1.0695,14.8191
		c0.3905,3.2588,1.2381,6.4274,2.4674,9.4123c7.4301,18.9283,31.7248,25.6783,49.72,18.7035
		c4.6124-1.7958,8.6595-4.4939,12.1698-7.7867c10.3221-9.5293,15.498-23.4816,15.7213-37.2021
		c0-17.3145-8.9982-34.415-23.3144-44.0973c-2.5014-1.8431-5.1419-3.5266-7.88-5.0456c-5.4807-3.0516-11.3606-5.451-17.439-7.192
		c-3.6478-1.0503-7.3593-1.8505-11.1004-2.4156c-4.5161-0.5902-9.0455-0.7618-13.5218-0.5089
		c-4.3979,0.2914-8.6995,0.9452-12.8959,1.9289c-38.3352,9.3187-65.434,40.8406-79.3272,76.7885
		c-1.7351,4.4894-3.2646,9.0546-4.5991,13.6491c-7.4613,25.3396-7.5322,52.1012-4.5191,78.3578
		c0.4334,3.7514,0.923,7.4953,1.4689,11.22c3.1834,20.7405,8.8591,40.9042,15.9966,60.5898
		c1.426,3.9347,2.9156,7.8488,4.4894,11.7526c1.3609,3.0516,2.7351,6.1032,4.1256,9.1388
		c12.4242,27.2803,25.2463,54.5036,41.192,79.7393c2.3875,3.9583,4.7618,7.92,7.1108,11.8962
		c1.7603,2.9792,3.5057,5.9672,5.2262,8.9685c1.7248,3.0058,3.4215,6.0147,5.0841,9.0427
		c9.8192,18.4121,18.3663,37.3052,25.3674,57.1302c1.3417,3.9644,2.5694,7.9643,3.6802,12.0262
		c18.3605,55.8305-9.5262,109.1102-41.5586,154.386c22.8675-37.0719,41.9706-75.0406,41.1799-118.4895
		c-0.1716-5.2719-0.6479-10.5323-1.4171-15.7627c-1.5399-10.4436-4.238-20.7775-7.9954-30.8705
		c-2.5073-6.7364-5.4879-13.3607-8.9022-19.8486c-11.3176-24.298-32.1035-45.6908-58.1178-52.5344
		c-5.1995-1.3683-10.6105-2.1567-16.1993-2.2618c-29.0168-1.5754-58.9358,15.0675-68.1575,43.6368
		c-6.2426,18.8943-1.3491,39.5531,11.1667,54.3097c4.1728,4.9169,9.1921,9.1772,14.9269,12.4906
		c15.5189,8.9997,35.9873,6.2986,49.5413-5.2189c4.4452-3.7663,8.1581-8.4435,10.7423-13.9048
		c6.5219-14.387,8.3251-34.412-5.1713-45.8817c-8.5456-6.9702-20.6945-8.0972-30.3676-3.599
		c-3.0428,1.423-5.457,3.6923-7.2484,6.414c2.4748-5.198,6.056-9.8813,10.8474-13.6106
		c13.7215-10.5735,32.3944-9.4508,45.6181,0.0473c4.2825,2.8727,8.1551,6.4213,11.5412,10.399
		c3.3876,3.9689,6.2838,8.3578,8.6122,12.9108c3.2603,5.5234,6.0266,11.3442,8.2926,17.359
		c4.5339,12.0234,7.0487,24.7716,7.7585,37.6566c0.355,6.4407,0.2544,12.905-0.2722,19.3309
		c-2.5961,62.45-50.0563,108.1165-82.7263,157.3791c-4.2601,6.2395-8.3887,12.5676-12.3355,19.0616
		c-3.948,6.494-7.707,13.1416-11.2303,20.0407c-2.5473,4.9199-4.9747,9.9049-7.269,14.9493
		c-3.0592,6.7394-5.886,13.5764-8.4229,20.5082c-17.1487,47.8023-19.6266,102.2393,0.6213,149.9266
		c3.5796,8.482,8.8031,15.887,14.9566,22.4728h60.8958c-2.426-4.9792-4.889-9.9495-7.3665-14.896
		c-23.9178-45.8666-48.2113-96.7014-35.0664-149.8387L13.8331,456.268z M-17.7403,618.5882
		c0.4408,0.787,0.8728,1.5798,1.3121,2.3727h0.679c-0.6716-0.8076-1.3491-1.6124-2.0177-2.4259
		c0.0091,0.0303,0.0182,0.0303,0.0273,0.0605L-17.7403,618.5882z M-53.2429,549.7885c-1.9038-8.3577-3.0649-16.9137-3.2379-25.7358
		c-0.2692-4.0235-0.3772-8.053-0.3624-12.0707c0.0385-8.053,0.5932-16.0942,1.6346-24.0497
		c0.5799-3.8993,1.2603-7.7749,2.0236-11.6448c3.0443-15.482,7.3253-30.7827,11.1697-46.0876
		c0.7485-3.1213,1.4792-6.2426,2.1627-9.3696c2.7233-12.5233,4.6951-25.1678,4.6018-37.9868
		c-0.0666-2.5443-0.2396-5.0738-0.5266-7.5974c-1.7736-17.6798-12.121-36.1358-29.403-42.5947
		c-1.6922-0.5739-3.4421-1.0295-5.2174-1.3579c-8.8607-1.6479-18.3278-0.0089-24.5156,6.917
		c-7.1996,7.4259-4.7248,19.7953,2.1375,26.6414c1.7159,1.7574,3.7293,3.1685,5.9732,4.0295
		c2.2425,0.8609,4.713,1.1864,7.3489,0.7485c5.1862-0.858,8.7407-5.1123,9.9746-9.9907c0.6198-2.4378,0.6568-5.0383,0.0266-7.4404
		c-0.6257-2.4082-1.9171-4.63-3.9408-6.3074c-1.9511-1.6035-4.6509-2.7307-7.3474-2.4999
		c-5.1744,0.6746-8.9982,5.6212-8.3208,10.7984c-1.8017-2.0295-2.028-5.1774-0.4526-7.4289
		c4.7248-7.195,14.6209-8.5501,22.0732-4.9465c2.9881,1.3964,5.6891,3.4791,8.1166,5.9496
		c4.4497,4.849,8.5014,10.2424,11.1697,16.5174c0.8594,1.9881,1.5991,4.0207,2.2292,6.0914
		c0.9541,3.1122,1.6686,6.3074,2.1878,9.5323c0.5207,3.2276,0.8417,6.491,1.0044,9.7247c0.3417,9.047-0.2766,18.0646-1.5961,26.9843
		c-0.4393,2.9762-0.9615,5.9348-1.5355,8.8785c-3.8299,15.5201-7.8252,31.1008-10.8753,46.8147
		c-0.7663,3.9229-1.4704,7.8579-2.0931,11.8074c-1.3165,8.0618-2.0946,16.186-2.3328,24.3129
		c-0.1168,4.065-0.1021,8.133,0.0518,12.1831c0.3018,4.0502,0.7307,8.0972,1.2603,12.1683
		c0.7944,8.1596,2.247,16.1829,4.2734,24.0672c1.0133,3.9259,2.1686,7.8252,3.457,11.6921
		c6.3001,18.6356,15.2568,36.0479,26.1042,52.4041h3.0117c-10.4272-19.3721-20.1531-38.1868-26.8543-58.76
		c-1.2936-4.0292-2.4327-8.1796-3.3839-12.3603L-53.2429,549.7885z M-33.736,585.8091c-1.2011-3.0088-2.3416-6.0411-3.4036-9.0945
		c-8.7334-24.804-10.5323-51.5711-8.0972-77.7489c0.2722-2.6627,0.5888-5.3134,0.9482-7.9643
		c0.8609-9.5499,2.636-18.8604,5.118-27.9637c0.6228-2.2751,1.2869-4.5381,1.997-6.7867
		c5.4704-16.3604,13.1207-31.8824,20.0792-47.7024c0.8964-1.8846,1.7973-3.7602,2.6981-5.6361
		c4.5206-9.3902,9.1357-18.7392,13.6682-28.2003c1.139-2.6035,2.2129-5.2277,3.2379-7.8458
		c2.6893-6.8846,5.0502-13.7896,6.9215-20.736c0.6228-2.3254,1.1893-4.6478,1.6908-6.9702
		c4.6375-19.8365,3.5148-41.6586-6.4983-59.6568c-1.318-2.4881-2.7721-4.8962-4.3652-7.1862
		c-6.3771-9.1712-14.9802-16.5438-26.1115-20.0262c-11.47-3.3758-24.7404-1.352-33.7243,6.411
		c-1.7544,1.6627-3.1137,3.553-4.1153,5.5945c-0.997,2.0325-1.6346,4.2188-1.9467,6.4731
		c-0.2322,1.9053-0.2648,3.8253-0.1021,5.7218c0.1657,1.8934,0.5296,3.772,1.0873,5.5797
		c2.5828,9.5826,12.2555,17.6798,22.1562,17.0085c8.5456-0.4527,14.3946-8.994,14.8442-17.0942
		c0-3.8253-0.2248-7.8755-2.9259-10.8014c-1.7958-1.5739-4.2722-2.4703-6.5234-1.3402c2.2514-1.8076,5.1774-2.4763,7.8724-1.8076
		c10.0116,2.5887,17.9404,8.7749,23.6915,16.7361c1.4349,1.9851,2.7351,4.0886,3.8993,6.2719
		c6.6019,12.9877,8.6241,28.0583,6.8518,42.4917c-0.2766,2.5088-0.639,4.9938-1.0769,7.4465
		c-1.7647,9.834-4.766,19.2539-8.4405,28.4605c-1.102,2.7692-2.2662,5.5089-3.4791,8.2336
		c-2.8963,6.0384-5.846,12.0292-8.7913,18.0112c-0.9837,1.994-1.9674,3.988-2.9452,5.9851
		c-8.133,18.6474-16.9076,36.8689-23.2462,56.2758c-0.7795,2.7514-1.4911,5.5206-2.1538,8.3074
		c-1.318,5.5797-2.4141,11.2158-3.2737,16.9197c-0.3905,2.5177-0.7322,5.0414-1.0148,7.5676
		c-0.2766,2.4615-0.503,4.9229-0.676,7.3901c-1.6153,28.1353,1.9881,56.697,11.646,83.3504
		c1.1139,3.0414,2.315,6.0412,3.6078,8.9998c3.8771,8.8755,8.5944,17.3369,14.4255,25.1027c0.784,1,1.6316,1.9526,2.4407,2.9319
		c-1.2041-2.1538-2.4127-4.3046-3.6078-6.4583c-4.5594-8.5432-8.7613-17.2983-12.3694-26.3263L-33.736,585.8091z M126.7059,518.1606
		c-7.8991-1.3668-16.1578-0.1539-23.3544,3.3548c-7.3532,3.5887-13.5249,9.6268-17.3975,16.8192
		c-4.0413,7.5056-5.2616,16.0854-4.537,24.508c0.7337,8.5204,3.4406,16.7125,6.8579,24.5052
		c4.0665,9.2748,9.5114,17.8604,15.2701,26.1648c1.7307,2.491,3.4657,4.985,5.2425,7.4525h0.9526
		c-0.7677-1.0621-1.5473-2.1183-2.3061-3.1951c-5.8963-8.3193-11.6448-16.7806-16.2081-25.9222
		c-7.6937-15.3989-13.1047-34.1909-5.7394-50.7561c3.4615-7.7809,9.6653-14.2716,17.183-18.2509
		c7.2499-3.8253,15.6252-5.0323,23.6946-3.769c16.6668,2.6301,30.2889,20.5675,25.8706,37.4233
		c-1.1701,4.4615-3.7453,8.6032-7.2526,11.5972c-1.8772,1.6006-4.0562,2.8106-6.355,3.6924
		c-2.0073,0.7751-4.0501,1.3668-6.2026,1.5385c-4.1686,0.3314-8.4081-0.9556-11.865-3.2543
		c-3.4421-2.2899-5.8193-5.7069-6.7794-9.7305c-1.1198-4.7039-0.1479-9.9612,2.6449-13.9169
		c0.2811-0.3964-0.3402-0.8313-0.6213-0.4319c-4.4703,6.334-4.5858,14.973,0.1805,21.1946
		c4.8163,6.2956,14.1002,8.7098,21.4415,6.0323c2.2588-0.8254,4.3755-1.6952,6.3859-3.0444
		c1.9127-1.2722,3.5339-2.8904,4.9629-4.689c2.71-3.402,4.3846-7.5234,4.9938-11.8192c1.2086-8.5707-2.0591-17.2955-7.4198-23.9015
		c-4.9381-6.2104-11.9059-10.3911-19.6311-11.7241L126.7059,518.1606z M-70.4322,485.6541
		c0.3565-6.6743,0.8254-13.3397,1.3003-20.0082c0.3594-5.062,0.6701-10.1358,0.5281-15.2184
		c-0.2677-9.6119-2.2455-19.5706-8.7098-27.0288c-5.7721-6.6537-14.3471-9.9849-23.0747-9.6032
		c-8.2366,0.3491-16.279,4.1952-21.3322,10.7659c-2.6952,3.5057-4.5279,7.7867-4.3104,12.2748
		c0.2308,4.8402,2.4333,9.3666,5.7512,12.8575c5.9733,6.272,16.1163,8.4671,23.6606,3.6744
		c5.3001-3.3785,7.6343-10.1121,6.368-16.1563c-1.3579-6.4673-8.2793-12.0292-14.9212-9.5323
		c-0.6242,0.2307-0.1775,1.1686,0.4423,0.9319c5.8281-2.1893,11.7496,2.7011,13.3279,8.1448
		c1.4482,4.985-0.1642,10.8844-3.9732,14.4019c-3.2337,2.9792-7.8119,4.068-12.1062,3.7306
		c-4.803-0.3817-9.1978-2.778-12.4479-6.275c-3.4497-3.7099-5.4822-8.7719-5.0932-13.8605
		c0.3491-4.5412,3.0014-8.8401,6.1287-12.0322c5.9908-6.1272,14.9242-8.7986,23.3395-7.8903
		c9.5708,1.0295,17.6162,7.059,21.8499,15.6237c4.4673,9.0382,4.5473,19.6593,4.0398,29.5051
		c-0.6612,12.822-1.8106,25.6028-2.1567,38.4381c-0.3535,13.2007-0.0074,26.4281,1.7366,39.5319
		c1.7396,13.0704,5.0574,25.8129,10.1655,37.9686c4.7705,11.3667,10.8474,22.1531,17.6992,32.3883
		c2.9023,4.3371,5.9969,8.5323,9.1757,12.6564h0.5592c-12.8235-16.9137-23.8957-35.4511-30.6464-55.5579
		c-8.5765-25.5689-8.7249-53.0767-7.292-79.7363L-70.4322,485.6541z M213.8644,442.9989
		c-15.9906-32.3762-63.6921-56.6758-98.2222-53.3585C4.7144,400.5485,10.0977,555.3567,76.6375,620.9543H99.622
		c-26.5865-34.1818-40.1983-78.9213-33.2729-122.6308c4.2231-21.8305,15.1193-48.693,36.7023-59.3539
		c17.146-9.0973,52.6192-10.8192,58.5177,13.5912c-29.9871-19.7835-60.0445,39.9196-16.1208,57.8694
		c45.1697,18.2679,91.9148-22.3577,68.4059-67.4366L213.8644,442.9989z"/>
</g>
</svg>
